<?xml version="1.0" encoding="UTF-8"?>
<svg version="1.1" viewBox="0 0 24 24" xml:space="preserve" xmlns="http://www.w3.org/2000/svg"><g transform="translate(24,-142)" fill="none" stroke="#000" stroke-linecap="round" stroke-linejoin="round" stroke-width="2"><path d="m-20 145h16a2 2 0 0 1 2 2v11.005a1.9902 1.9902 0 0 1-1.1001 1.7801l-7.7997 3.8998a2.46 2.46 0 0 1-2.2003 0l-7.7997-3.8998a1.9902 1.9902 0 0 1-1.1001-1.7801v-11.005a2 2 0 0 1 2-2z"/><g transform="translate(-48 141.07)"><path d="m39 16.937h-1a2 2 0 0 1-2-2 2 2 0 0 1-2 2h-1"/><path d="m33 8.9367h1a2 2 0 0 1 2 2 2 2 0 0 1 2-2h1"/><path d="m36 10.93v4.1476"/></g></g></svg>
