<?xml version="1.0" encoding="UTF-8"?>
<svg version="1.1" viewBox="0 0 24 24" xml:space="preserve" xmlns="http://www.w3.org/2000/svg"><g transform="translate(0 -141.97)" fill="none" stroke="#000" stroke-linecap="round" stroke-linejoin="round" stroke-width="2"><path d="m4 144 4 3e-5 4 3 4-3 4-3e-5c1.1046 0 2 0.89543 2 2v12.005c0 0.75382-0.4259 1.443-1.1001 1.7801l-7.7997 3.8998c-0.69256 0.34628-1.5077 0.34628-2.2003 0l-7.7997-3.8998c-0.67424-0.33712-1.1001-1.0262-1.1001-1.7801v-12.005c0-1.1046 0.89543-2 2-2z"/><g transform="translate(-24 141.07)"><path d="m39 16.937h-1a2 2 0 0 1-2-2 2 2 0 0 1-2 2h-1"/><path d="m33 8.9367h1a2 2 0 0 1 2 2 2 2 0 0 1 2-2h1"/><path d="m36 10.93v4.1476"/></g></g></svg>
